<svg xmlns="http://www.w3.org/2000/svg" xmlns:xlink="http://www.w3.org/1999/xlink" version="1.1" id="Layer_1" x="0px" y="0px" width="374.5px" height="92.5px" viewBox="0 0 374.5 92.5" enable-background="new 0 0 374.5 92.5" xml:space="preserve">
    <g>
        <g>
        <g>
                <path fill="#F9A13B" d="M137.854,19.644h-7.235c-1.629,0-2.531,0.905-2.954,1.87l-6.451,14.408l-4.463-13.926     c-0.604-1.869-1.869-2.352-2.774-2.352h-6.572c-1.386,0-2.533,1.207-2.593,2.352l-4.279,13.926l-6.453-14.408     c-0.724-1.87-2.893-1.87-4.1-1.87h-7.899c-2.772,0.422-2.653,2.291-1.989,4.159L91.489,49.85     c0.421,0.544,1.084,1.689,3.074,1.689h8.32c1.87,0,2.654-1.145,2.835-1.809l4.821-16.34c0.122-0.422,0.363-0.483,0.484,0.059     l4.824,16.281c0.483,0.843,1.688,1.809,3.135,1.809h6.692c2.111,0,2.896-1.145,3.315-1.872l11.394-26.587     C140.99,21.392,140.146,19.704,137.854,19.644z"/>
                <path fill="#F9A13B" d="M34.812,5.353c-8.804,0-17.123,4.222-22.37,11.278h4.404c4.46-4.946,11.213-7.899,17.966-7.899     c8.079,0,15.859,4.222,20.259,10.851h-5.727l7.477,11.94l7.717-11.94h-5.487C54.346,10.838,44.822,5.353,34.812,5.353z"/>
                <polygon fill="#F9A13B" points="5.208,19.582 25.709,51.419 34.993,35.982 44.037,51.419 54.71,34.717 45.243,19.582    "/>
                <path fill="#F9A13B" d="M10.274,33.091l-3.136-4.825c0,0-0.362,3.616-0.362,4.763C6.896,37.972,7.259,43.4,13.769,51.54     c0.062,0.059,4.884,0,4.946,0C13.527,46.957,10.091,40.143,10.274,33.091z"/>
                <path fill="#F9A13B" d="M345.265,48.946l-6.153-9.587c3.619-1.567,5.791-3.555,5.791-6.692v-4.762     c0-4.463-4.884-8.023-10.674-8.261h-28.579c-2.169,0-4.158,0.905-4.158,3.92v25.503c0.118,1.084,0.541,2.292,2.169,2.472h9.404     c1.992-0.061,2.294-1.328,2.294-2.715v-9.042c0-0.241,0.301-0.482,0.543-0.482h8.319c0.725,0,0.965,0.241,1.449,0.965     l5.183,9.528c0.181,0.419,1.326,1.865,2.834,1.747h10.13C345.265,51.54,345.865,50.03,345.265,48.946z M328.503,31.822h-12.844     c-0.301,0-0.425-0.362-0.425-0.603v-3.498c0.062-0.421,0.425-0.542,0.425-0.542h12.661c2.23,0,3.498,0,3.561,2.292     C331.881,31.822,330.551,31.822,328.503,31.822z"/>
                <path fill="#F9A13B" d="M293.11,19.644h-29.605c-2.169,0-3.558,1.264-3.558,3.496v25.563c0,1.932,1.45,2.836,3.558,2.836h29.605     c1.084,0,2.592,0,2.592-1.267v-4.34c0-1.689-1.508-1.931-2.592-1.931h-19.297c-0.358,0-0.603-0.179-0.662-0.542v-3.858     c-0.06-0.303,0.241-0.724,0.662-0.724h19.297c1.928,0,2.592-0.664,2.592-2.232v-1.99c0-2.048-0.906-2.351-2.592-2.351h-19.535     c-0.244,0-0.424-0.059-0.424-0.602v-3.982c0-0.299,0-0.481,0.424-0.542h19.535c1.809,0,2.592-0.664,2.592-2.29v-2.775     C295.702,20.126,294.919,19.644,293.11,19.644z"/>
                <path fill="#F9A13B" d="M171.378,22.658c-1.447-2.954-3.317-3.014-4.946-3.014h-12.358c-1.931-0.121-4.403,1.626-5.188,3.256     l-12.118,25.504c-0.601,1.145-0.302,3.135,1.329,3.135h7.293c1.328,0,1.869-0.846,2.231-1.207l2.112-4.882l16.58,0.059     l2.715,4.823c0.481,0.783,1.687,1.207,2.833,1.207h10.008c2.172-0.061,2.172-1.932,1.449-3.135L171.378,22.658z M162.997,38.396     h-9.887c-0.424-0.059-0.424-0.243-0.241-0.484l4.943-10.732c0.18-0.302,0.422-0.542,0.604,0l4.883,10.792     C163.477,38.273,163.298,38.396,162.997,38.396z"/>
                <path fill="#F9A13B" d="M252.532,19.644h-36.175c-2.531,0-3.198,1.145-3.198,2.471v2.833c0,1.146,0.904,2.232,2.533,2.232h11.637     v22.129c-0.061,1.205,1.086,2.231,2.353,2.231h9.585c2.229,0.181,2.472-1.267,2.472-2.411V27.18h11.273     c1.51,0,2.293-0.664,2.354-2.29v-2.775C255.244,20.851,254.642,19.644,252.532,19.644z"/>
                <path fill="#F9A13B" d="M218.949,45.328H200.8V23.442c-0.122-3.496-2.17-3.86-3.857-3.798h-6.151     c-3.136-0.121-3.857,1.989-3.8,3.798v24.781c-0.057,1.627,1.027,3.256,3.5,3.317h28.636c1.027,0,2.05-0.121,2.413-1.207v-3.015     C221.422,45.75,220.035,45.328,218.949,45.328z"/>
        </g>
        </g>
        <g>
            <path fill="#231F20" d="M98.179,69.178c-0.771-0.685-1.827-1.142-3.01-1.142c-0.888,0-2.153,0.48-2.317,1.438    c-0.172,1.004,1.068,1.393,1.864,1.644l1.174,0.342c2.468,0.708,4.258,1.917,3.781,4.703c-0.292,1.712-1.037,3.471-2.715,4.634    c-1.65,1.142-3.68,1.621-5.554,1.621c-2.342,0-4.51-0.731-6.198-1.963l2.688-3.607c1.041,0.982,2.333,1.781,3.985,1.781    c1.134,0,2.432-0.525,2.639-1.735c0.215-1.256-1.609-1.689-2.598-1.964c-2.896-0.799-4.769-1.529-4.198-4.862    c0.598-3.494,3.675-5.776,7.399-5.776c1.874,0,4.073,0.548,5.577,1.416L98.179,69.178z"/>
            <path fill="#231F20" d="M108.056,70.251l-1.071,6.255c-0.253,1.484-0.039,2.534,1.811,2.534c1.849,0,2.423-1.05,2.677-2.534    l1.07-6.255h4.488l-1.207,7.055c-0.66,3.858-3.797,5.045-7.594,5.045s-6.528-1.187-5.868-5.045l1.207-7.055H108.056z"/>
            <path fill="#231F20" d="M124.815,72.169h0.049c1.109-1.439,2.698-2.078,4.448-2.078h0.863l-0.683,3.995    c-0.562-0.319-1.142-0.388-1.833-0.388c-2.491,0-3.368,1.53-3.712,3.539l-0.808,4.726h-4.488l2.003-11.712h4.488L124.815,72.169z"/>
            <path fill="#231F20" d="M136.503,81.963h-4.487l1.417-8.287h-1.578l0.585-3.425h1.578l0.254-1.483    c0.277-1.622,0.529-2.809,1.985-4.11c1.316-1.21,3.032-1.872,4.733-1.872c0.691,0,1.288,0.114,1.854,0.411l-0.613,3.584    c-0.482-0.206-0.919-0.388-1.512-0.388c-1.159,0-1.663,0.639-1.889,1.964l-0.324,1.895h3.132l-0.586,3.425h-3.131L136.503,81.963z    "/>
            <path fill="#231F20" d="M155.735,81.963h-4.488l0.223-1.301h-0.05c-0.988,1.165-2.631,1.689-4.11,1.689    c-3.748,0-5.891-2.899-5.316-6.256c0.574-3.356,3.655-6.232,7.402-6.232c1.455,0,2.898,0.502,3.659,1.529l0.195-1.142h4.488    L155.735,81.963z M146.626,76.119c-0.254,1.484,0.611,2.625,2.436,2.625s3.081-1.141,3.333-2.625    c0.247-1.439-0.606-2.648-2.431-2.648S146.872,74.68,146.626,76.119z"/>
            <path fill="#231F20" d="M169.958,74.064c-0.588-0.457-1.315-0.822-2.178-0.822c-1.726,0-3.293,1.233-3.57,2.854    c-0.289,1.689,0.814,2.877,2.664,2.877c0.789,0,1.703-0.296,2.381-0.799l-0.602,3.515c-1.064,0.457-2.184,0.663-3.269,0.663    c-3.748,0-6.438-2.58-5.833-6.119c0.644-3.767,4.196-6.369,8.166-6.369c1.035,0,2.032,0.228,2.842,0.685L169.958,74.064z"/>
            <path fill="#231F20" d="M186.034,76.803h-9.444c-0.289,1.689,0.517,2.603,2.366,2.603c0.962,0,1.703-0.296,2.329-1.073h4.315    c-1.188,2.763-4.238,4.019-7.123,4.019c-4.192,0-6.948-2.192-6.257-6.232c0.667-3.904,3.955-6.255,8.072-6.255    c4.389,0,6.499,2.511,5.815,6.506L186.034,76.803z M182.276,74.406c-0.031-1.119-1.015-1.849-2.223-1.849    c-1.307,0-2.5,0.639-2.979,1.849H182.276z"/>
            <path fill="#231F20" d="M204.679,81.963h-4.833l2.296-13.424h-3.994l0.648-3.79h12.822l-0.648,3.79h-3.995L204.679,81.963z"/>
            <path fill="#231F20" d="M222.698,76.803h-9.444c-0.289,1.689,0.517,2.603,2.366,2.603c0.961,0,1.703-0.296,2.328-1.073h4.315    c-1.188,2.763-4.238,4.019-7.123,4.019c-4.192,0-6.949-2.192-6.257-6.232c0.667-3.904,3.954-6.255,8.072-6.255    c4.389,0,6.499,2.511,5.815,6.506L222.698,76.803z M218.941,74.406c-0.03-1.119-1.015-1.849-2.223-1.849    c-1.307,0-2.501,0.639-2.979,1.849H218.941z"/>
            <path fill="#231F20" d="M235.101,74.064c-0.587-0.457-1.314-0.822-2.177-0.822c-1.726,0-3.293,1.233-3.57,2.854    c-0.289,1.689,0.814,2.877,2.664,2.877c0.79,0,1.703-0.296,2.38-0.799l-0.601,3.515c-1.064,0.457-2.185,0.663-3.269,0.663    c-3.749,0-6.438-2.58-5.833-6.119c0.645-3.767,4.196-6.369,8.166-6.369c1.036,0,2.032,0.228,2.842,0.685L235.101,74.064z"/>
            <path fill="#231F20" d="M245.028,63.014l-1.491,8.721h0.049c1.254-1.278,2.614-1.872,4.364-1.872c3.205,0,4.423,1.963,3.915,4.931    l-1.226,7.169h-4.488l1.027-6.004c0.234-1.37,0.255-2.785-1.545-2.785c-1.775,0-2.584,1.415-2.819,2.785l-1.027,6.004H237.3    l3.241-18.949H245.028z"/>
            <path fill="#231F20" d="M260.596,71.758h0.049c1.278-1.416,2.618-1.895,4.368-1.895c3.403,0,4.42,1.986,3.927,4.863l-1.237,7.237    h-4.487l0.977-5.708c0.19-1.119,0.724-3.082-1.495-3.082c-1.825,0-2.557,1.255-2.808,2.716l-1.038,6.073h-4.487l2.003-11.712    h4.487L260.596,71.758z"/>
            <path fill="#231F20" d="M286.727,76.119c-0.68,3.972-4.617,6.232-8.686,6.232c-4.043,0-7.236-2.237-6.553-6.232    s4.62-6.255,8.689-6.255C284.245,69.863,287.409,72.124,286.727,76.119z M276.223,76.119c-0.254,1.484,0.61,2.625,2.436,2.625    c1.824,0,3.08-1.141,3.334-2.625c0.246-1.439-0.607-2.648-2.432-2.648C277.735,73.47,276.469,74.68,276.223,76.119z"/>
            <path fill="#231F20" d="M293.001,81.963h-4.488l3.241-18.949h4.487L293.001,81.963z"/>
            <path fill="#231F20" d="M312.023,76.119c-0.679,3.972-4.616,6.232-8.685,6.232c-4.044,0-7.236-2.237-6.553-6.232    s4.621-6.255,8.688-6.255C309.543,69.863,312.707,72.124,312.023,76.119z M301.52,76.119c-0.253,1.484,0.612,2.625,2.437,2.625    s3.08-1.141,3.334-2.625c0.246-1.439-0.607-2.648-2.433-2.648C303.033,73.47,301.766,74.68,301.52,76.119z"/>
            <path fill="#231F20" d="M327.888,80.822c-0.852,4.977-3.858,6.985-8.519,6.985c-2.909,0-6.566-1.392-6.435-4.474h5.03    c0.054,0.41,0.323,0.707,0.687,0.89c0.363,0.183,0.816,0.274,1.235,0.274c2.416,0,3.135-1.461,3.459-3.356l0.093-0.548    c-1.342,1.073-2.615,1.598-4.291,1.598c-3.699,0-5.794-2.603-5.216-5.981c0.586-3.425,3.699-6.347,7.57-6.347    c1.479,0,2.757,0.457,3.446,1.62h0.049l0.211-1.232h4.487L327.888,80.822z M318.599,76.027c-0.254,1.484,0.61,2.625,2.436,2.625    c1.824,0,3.08-1.141,3.334-2.625c0.246-1.439-0.607-2.649-2.432-2.649C320.111,73.378,318.845,74.588,318.599,76.027z"/>
            <path fill="#231F20" d="M335.755,81.963h-4.487l2.003-11.712h4.488L335.755,81.963z M338.799,65.753    c-0.219,1.278-1.532,2.329-2.913,2.329s-2.336-1.05-2.117-2.329c0.219-1.279,1.533-2.329,2.914-2.329    C338.062,63.425,339.018,64.475,338.799,65.753z"/>
            <path fill="#231F20" d="M353.354,76.803h-9.442c-0.289,1.689,0.517,2.603,2.366,2.603c0.961,0,1.702-0.296,2.328-1.073h4.314    c-1.187,2.763-4.237,4.019-7.122,4.019c-4.191,0-6.948-2.192-6.257-6.232c0.668-3.904,3.954-6.255,8.072-6.255    c4.39,0,6.5,2.511,5.816,6.506L353.354,76.803z M349.598,74.406c-0.03-1.119-1.015-1.849-2.224-1.849    c-1.306,0-2.501,0.639-2.979,1.849H349.598z"/>
            <path fill="#231F20" d="M365.13,73.265c-0.632-0.342-1.555-0.571-2.319-0.571c-0.518,0-1.441,0.206-1.542,0.799    c-0.136,0.799,1.249,0.914,1.847,1.028c2.03,0.388,3.451,1.301,3.079,3.47c-0.527,3.083-3.778,4.361-6.712,4.361    c-1.8,0-3.493-0.479-4.873-1.347l2.123-2.899c0.81,0.594,2.238,1.187,3.348,1.187c0.566,0,1.448-0.251,1.558-0.89    c0.155-0.914-1.242-0.959-2.589-1.301s-2.644-0.981-2.284-3.082c0.492-2.877,3.521-4.155,6.283-4.155    c1.431,0,2.825,0.206,4.039,0.753L365.13,73.265z"/>
        </g>
    </g>
</svg>